<?xml version="1.0" encoding="UTF-8"?>
<svg width="1813px" height="42px" viewBox="0 0 1813 42" version="1.1" xmlns="http://www.w3.org/2000/svg" xmlns:xlink="http://www.w3.org/1999/xlink">
    <!-- Generator: Sketch 59.1 (86144) - https://sketch.com -->
    <title>编组 3备份@3x</title>
    <desc>Created with Sketch.</desc>
    <defs>
        <linearGradient x1="100%" y1="100%" x2="8.92380094%" y2="100%" id="linearGradient-1">
            <stop stop-color="#0685CF" offset="0%"></stop>
            <stop stop-color="#00FFFC" offset="100%"></stop>
        </linearGradient>
        <linearGradient x1="0.869224576%" y1="160.502182%" x2="100%" y2="160.502182%" id="linearGradient-2">
            <stop stop-color="#0685CF" offset="0%"></stop>
            <stop stop-color="#00FFFC" offset="100%"></stop>
        </linearGradient>
        <polygon id="path-3" points="0 0.193781583 105.472668 0.193781583 105.472668 39.8371628 0 39.8371628"></polygon>
    </defs>
    <g id="Big-Data" stroke="none" stroke-width="1" fill="none" fill-rule="evenodd">
        <g id="编组-3备份">
            <g id="分组-3-copy-4备份" transform="translate(1417.000000, 21.000000) scale(-1, 1) translate(-1417.000000, -21.000000) translate(1154.000000, 6.000000)">
                <polyline id="路径-7" stroke="url(#linearGradient-1)" stroke-width="4" stroke-linecap="round" points="9.01959166 9.5 52.096572 9.5 79.0100639 25.7773437 134.685386 25.7773437 153.741072 3.94921875 322.384585 3.94921875 343.208937 20.2070313 508.943549 20.2070313"></polyline>
                <circle id="椭圆形" stroke="#078CD9" stroke-width="3" cx="517" cy="20" r="7.5"></circle>
                <circle id="椭圆形-copy-8" fill="#00FFFC" cx="9" cy="9" r="9"></circle>
                <circle id="椭圆形-copy-4" stroke="#00FFFC" stroke-width="2" cx="189.5" cy="23.5" r="5.5"></circle>
                <circle id="椭圆形-copy-6" stroke="#00FFFC" stroke-width="2" cx="255.5" cy="23.5" r="5.5"></circle>
                <circle id="椭圆形-copy-7" stroke="#00FFFC" stroke-width="2" cx="288.5" cy="23.5" r="5.5"></circle>
                <circle id="椭圆形-copy-5" fill="#00FFFC" cx="222.5" cy="23.5" r="6.5"></circle>
                <line x1="349" y1="5.94921875" x2="361.53418" y2="5.94921875" id="直线-6" stroke="#078CD9" stroke-width="3" stroke-linecap="square"></line>
                <line x1="463.5" y1="5.94921875" x2="476.03418" y2="5.94921875" id="直线-6-copy-2" stroke="#078CD9" stroke-width="3" stroke-linecap="square"></line>
                <line x1="364" y1="5.94921875" x2="462" y2="5.94921875" id="直线-6-copy" stroke="#078CD9" stroke-width="3" stroke-linecap="square" stroke-dasharray="1,7"></line>
            </g>
            <g id="分组-3-copy-3" transform="translate(0.000000, 2.000000)">
                <polyline id="路径-7" stroke="url(#linearGradient-2)" stroke-width="4" stroke-linecap="round" points="83.2889859 26.4613894 204.980354 26.7773438 224.03604 4.94921875 392.679554 4.94921875 413.503906 21.2070313 573.197266 21.2070313"></polyline>
                <g id="编组-2备份">
                    <g id="Group-3">
                        <path d="M35.1157312,0.0669169265 C37.9087177,0.193593251 40.7689158,1.62049466 43.6963497,4.34754389 C45.0042787,5.56594996 46.0330064,6.8339291 46.7829021,8.15144583 C47.8117454,9.96034765 48.3097988,11.7968159 48.2768373,13.6615037 C48.22328,16.0478685 47.1245099,18.3886072 44.9808944,20.684973 L32.1018599,34.7587726 C31.7028457,32.3947114 30.2667572,30.4147801 28.3035579,29.2619252 L39.9224354,16.5608419 C41.2931841,15.0924159 41.9573985,13.6326084 41.9143446,12.1817423 C41.8716515,10.7305411 41.2691484,9.46404316 40.1060805,8.38058645 C38.5489244,6.93001656 37.069655,6.22847623 35.6670476,6.27506426 C34.2648548,6.32213448 32.9165933,7.03853894 31.6232724,8.42401968 L23.1055208,17.2728803 L22.8643943,17.5036322 C21.6302376,18.703491 19.6586786,18.7360938 18.3866567,17.5499143 C17.124514,16.3729472 17.0113308,14.4252416 18.0961412,13.1121309 L18.1807854,13.014591 L18.1805363,13.0132268 L18.340638,12.8341503 L26.6884072,4.16738468 C29.3530992,1.3128113 32.1625282,-0.053600348 35.1157312,0.0669169265 Z M18.2266309,12.9635143 L18.1807854,13.014591 L18.1821851,13.0160492 L18.2266309,12.9635143 L18.2266309,12.9635143 Z" id="蓝" fill="#02AAFF"></path>
                        <path d="M21.3843507,3.85145568 L21.6605248,4.14144789 L30.012898,12.8267595 L30.1594236,12.9916298 L30.191883,13.027271 C31.3648854,14.3766558 31.2237327,16.4198608 29.8766096,17.590897 C28.5817457,18.716505 26.6439801,18.6265906 25.4538684,17.4195628 L25.4531539,17.4210193 L25.2732061,17.2307219 L16.7256596,8.39808288 C15.4323387,7.01260214 14.0840772,6.29619768 12.6818844,6.24912746 C11.279277,6.20253943 9.80000759,6.90407976 8.24285147,8.35464965 C7.07978359,9.43810636 6.47728051,10.7046043 6.43458739,12.1558055 C6.39406607,13.5213265 6.98005229,14.894768 8.1919342,16.2758607 L8.42649663,16.5349051 L20.3013095,29.257281 C18.317963,30.4189459 16.9021731,32.4127489 16.5002443,34.7256903 L3.36803578,20.6590379 C1.22442215,18.3626704 0.125651988,16.0219317 0.0720947221,13.6355669 C0.0391331867,11.7708791 0.53718666,9.93441086 1.56602991,8.12550903 C2.31592564,6.80799231 3.3446533,5.54001316 4.65258235,4.32160709 C7.58001619,1.59455787 10.4402143,0.167656452 13.2332008,0.040980128 C16.0845692,-0.0753813784 18.8019082,1.19440726 21.3843507,3.85145568 Z" id="红" fill="#D6313A"></path>
                        <polygon id="投影" fill="#3A3A3A" fill-rule="nonzero" opacity="0.400000006" transform="translate(26.703340, 8.544545) scale(1, -1) rotate(-100.000000) translate(-26.703340, -8.544545) " points="25.4510948 5.75437797 24.0638532 6.66938482 28.8176911 11.3347126 29.3428263 10.9853653"></polygon>
                        <ellipse id="圆" fill="#D6313A" transform="translate(24.298702, 36.084131) scale(-1, 1) translate(-24.298702, -36.084131) " cx="24.2987017" cy="36.0841306" rx="3.77693672" ry="3.77060587"></ellipse>
                    </g>
                    <path d="M50.4697987,0 L50.4697987,0.601582915 L51.8725909,0.601582915 L51.8725909,4.29530201 L52.5739871,4.29530201 L52.5739871,0.601582915 L53.9767794,0.601582915 L53.9767794,0 L50.4697987,0 Z M54.4863407,0 L55.3076336,0 L56.7643794,3.36886432 L56.7883588,3.36886432 L58.2391098,0 L59.0604027,0 L59.0604027,4.29530201 L58.3590065,4.29530201 L58.3590065,1.33551407 L58.3350272,1.33551407 L57.076111,4.29530201 L56.4706323,4.29530201 L55.2117162,1.33551407 L55.1877368,1.33551407 L55.1877368,4.29530201 L54.4863407,4.29530201 L54.4863407,0 Z" id="TM" fill="#333333" fill-rule="nonzero"></path>
                </g>
                <circle id="椭圆形" stroke="#078CD9" stroke-width="3" cx="581" cy="21" r="7.5"></circle>
                <circle id="椭圆形-copy-4" stroke="#00FFFC" stroke-width="2" cx="263.5" cy="24.5" r="5.5"></circle>
                <circle id="椭圆形-copy-6" stroke="#00FFFC" stroke-width="2" cx="329.5" cy="24.5" r="5.5"></circle>
                <circle id="椭圆形-copy-7" stroke="#00FFFC" stroke-width="2" cx="362.5" cy="24.5" r="5.5"></circle>
                <circle id="椭圆形-copy-5" fill="#00FFFC" cx="296.5" cy="24.5" r="6.5"></circle>
                <line x1="425.5" y1="6.94921875" x2="438.03418" y2="6.94921875" id="直线-6" stroke="#078CD9" stroke-width="3" stroke-linecap="square"></line>
                <line x1="504.5" y1="6.94921875" x2="517.03418" y2="6.94921875" id="直线-6-copy-2" stroke="#078CD9" stroke-width="3" stroke-linecap="square"></line>
                <line x1="442.525391" y1="6.94921875" x2="504.705078" y2="6.94921875" id="直线-6-copy" stroke="#078CD9" stroke-width="3" stroke-linecap="square" stroke-dasharray="1,7"></line>
            </g>
            <text id="WorkLife-运维驾驶舱" font-family="JYaoTi, 迷你简姚体" font-size="36" font-weight="normal" line-spacing="36" fill="#00FFFC">
                <tspan x="721.5" y="39">WorkLife 运维驾驶舱</tspan>
            </text>
            <g id="Group-33-Copy-2" transform="translate(1707.000000, 0.000000)">
                <mask id="mask-4" fill="white">
                    <use xlink:href="#path-3"></use>
                </mask>
                <g id="Clip-32"></g>
                <path d="M85.4898749,37.6000069 C79.0384684,37.6000069 73.387478,34.1593689 70.2865149,29.0348223 C71.687893,26.3275512 72.4840862,23.2626187 72.4840862,20.0159555 C72.4840862,16.7686479 71.687893,13.7043598 70.2865149,10.9967665 C73.387478,5.87221994 79.0384684,2.43125965 85.4898749,2.43125965 C95.264438,2.43125965 103.21695,10.3197876 103.21695,20.0159555 C103.21695,29.711479 95.264438,37.6000069 85.4898749,37.6000069 M52.5019427,37.6000069 C46.2253023,37.6000069 40.7042497,34.3443217 37.5542351,29.4495162 C39.0913981,26.6420354 39.9658788,23.4282384 39.9658788,20.0159555 C39.9658788,16.6036726 39.0913981,13.3895534 37.5542351,10.5820726 C40.7052242,5.68726712 46.2253023,2.43125965 52.5019427,2.43125965 C62.2758561,2.43125965 70.2290175,10.3197876 70.2290175,20.0159555 C70.2290175,29.711479 62.2758561,37.6000069 52.5019427,37.6000069 M19.9827607,37.6000069 C10.2078728,37.6000069 2.25536105,29.711479 2.25536105,20.0159555 C2.25536105,10.3197876 10.2078728,2.43125965 19.9827607,2.43125965 C29.7582983,2.43125965 37.7101604,10.3197876 37.7101604,20.0159555 C37.7101604,29.711479 29.7582983,37.6000069 19.9827607,37.6000069 M85.4898749,0.193781583 C78.647031,0.193781583 72.5990811,3.626042 68.9962336,8.84370939 C65.393711,3.62571979 59.3447865,0.193781583 52.5019427,0.193781583 C45.8043042,0.193781583 39.8700497,3.48297745 36.2425141,8.51504758 C32.6153034,3.48329967 26.680724,0.193781583 19.9827607,0.193781583 C8.96404422,0.193781583 -3.24844236e-05,9.08633914 -3.24844236e-05,20.0159555 C-3.24844236e-05,30.9455719 8.96404422,39.8371628 19.9827607,39.8371628 C26.680724,39.8371628 32.6153034,36.5486113 36.2425141,31.516219 C39.8697249,36.5486113 45.8039794,39.8371628 52.5019427,39.8371628 C59.3447865,39.8371628 65.393711,36.4061912 68.9962336,31.1885238 C72.5990811,36.4061912 78.647031,39.8371628 85.4898749,39.8371628 C96.5082665,39.8371628 105.472668,30.9455719 105.472668,20.0159555 C105.472668,9.08633914 96.5082665,0.193781583 85.4898749,0.193781583" id="Fill-31" fill="#D80031" mask="url(#mask-4)"></path>
                <path d="M20.499458,8.97404636 C23.619262,8.97404636 26.618224,10.2932047 28.7284122,12.5928707 L28.7284122,12.5928707 L28.9993322,12.889633 L25.0953542,16.9382954 L24.7861025,16.5606565 C23.729709,15.2701756 22.1675331,14.5300421 20.499458,14.5300421 C17.4540432,14.5300421 14.9764563,16.9875947 14.9764563,20.0087056 C14.9764563,23.0301388 17.4540432,25.4873691 20.499458,25.4873691 C22.1620108,25.4873691 23.7202886,24.7527133 24.776682,23.4696434 L24.776682,23.4696434 L25.0797617,23.1019933 L29.0607278,27.0517349 L28.7875338,27.3552638 C26.6753966,29.698107 23.6543452,31.0433649 20.499458,31.0433649 C14.3654242,31.0433649 9.37549193,26.0928158 9.37549193,20.0087056 C9.37549193,13.9233066 14.3654242,8.97404636 20.499458,8.97404636 Z M88.2065797,9.65270078 C92.5448745,9.65270078 96.0736574,13.1001054 96.0736574,17.3375873 C96.0736574,21.5766802 92.5981489,25.0253737 88.324823,25.0253737 L88.324823,25.0253737 L83.146481,25.0253737 L83.146481,30.6061802 L77.6039887,30.6061802 L77.6039887,9.65270078 Z M53.5088299,9.65260411 C59.2962548,9.65260411 63.8301058,14.2255144 63.8301058,20.0637726 C63.8301058,25.9020308 59.2962548,30.4759077 53.5088299,30.4759077 L53.5088299,30.4759077 L44.6717673,30.4759077 L44.6717673,9.65260411 Z M53.1771639,15.0661797 L50.4390518,15.0661797 L50.4390518,25.0990649 C51.0555598,25.0999855 52.1765707,25.1013993 52.7752265,25.1021321 L53.1771639,25.1026093 C55.8340649,25.1026093 58.0787386,22.79521 58.0787386,20.0637726 C58.0787386,17.3545681 55.8340649,15.0661797 53.1771639,15.0661797 L53.1771639,15.0661797 Z M87.9999788,14.793036 L83.146481,14.793036 L83.146481,19.9275713 L87.9999788,19.9275713 C89.2886359,19.9275713 90.4197435,18.716678 90.4197435,17.3375873 C90.4197435,15.9578521 89.311375,14.793036 87.9999788,14.793036 L87.9999788,14.793036 Z" id="合并形状" fill="#D80031" mask="url(#mask-4)"></path>
            </g>
        </g>
    </g>
</svg>